<svg fill="none" height="24" viewBox="0 0 24 24" width="24" xmlns="http://www.w3.org/2000/svg">
    <path clip-rule="evenodd" d="M21.4304 3.53033C21.7232 3.23744 21.7232 2.76256 21.4304 2.46967C21.1375 2.17678 20.6626 2.17678 20.3697 2.46967L17.3121 5.5273C15.7725 4.55965 13.9506 4 11.9979 4C7.44284 4 3.59907 7.0456 2.39188 11.2116C2.24274 11.7262 2.24274 12.2738 2.39188 12.7884C2.92398 14.6247 3.96832 16.2433 5.36004 17.4793L2.36969 20.4697C2.0768 20.7626 2.0768 21.2374 2.36969 21.5303C2.66259 21.8232 3.13746 21.8232 3.43035 21.5303L21.4304 3.53033ZM8.6511 14.1883L14.1883 8.6511C13.5595 8.23939 12.8077 8 12 8C9.79086 8 8 9.79086 8 12C8 12.8077 8.23939 13.5595 8.6511 14.1883Z"
        fill="#F4EBDC"
        fill-rule="evenodd" />
    <path
        d="M12 16C11.7264 16 11.4593 15.9725 11.2011 15.9202L7.967 19.1543C9.20007 19.6981 10.5637 20 11.9979 20C16.5531 20 20.3968 16.9544 21.604 12.7884C21.7532 12.2738 21.7532 11.7262 21.604 11.2116C21.2044 9.83263 20.516 8.57645 19.6085 7.51283L15.9202 11.2011C15.9725 11.4593 16 11.7264 16 12C16 14.2091 14.2091 16 12 16Z"
        fill="#F4EBDC" />
</svg>
